/vscmnt/brussel_pixiu_data/_data_brussel/112/vsc11236/PredSimResults/SUBJ11mtu3D/worker2.mot
version=1
nRows=4
nColumns=50
inDegrees=yes
endheader
                time	         pelvis_tilt	         pelvis_list	     pelvis_rotation	           pelvis_tx	           pelvis_ty	           pelvis_tz	       hip_flexion_r	     hip_adduction_r	      hip_rotation_r	        knee_angle_r	       ankle_angle_r	         mtp_angle_r	       hip_flexion_l	     hip_adduction_l	      hip_rotation_l	        knee_angle_l	       ankle_angle_l	         mtp_angle_l	    lumbar_extension	      lumbar_bending	     lumbar_rotation	 ercspn_r/activation	 intobl_r/activation	 extobl_r/activation	    abd_r/activation	    add_r/activation	hamstrings_r/activation	bifemsh_r/activation	glut_max_r/activation	iliopsoas_r/activation	rect_fem_r/activation	  vasti_r/activation	gastroc_r/activation	 soleus_r/activation	tib_ant_r/activation	 ercspn_l/activation	 intobl_l/activation	 extobl_l/activation	    abd_l/activation	    add_l/activation	hamstrings_l/activation	bifemsh_l/activation	glut_max_l/activation	iliopsoas_l/activation	rect_fem_l/activation	  vasti_l/activation	gastroc_l/activation	 soleus_l/activation	tib_ant_l/activation	
          1.34171926	         -2.47344220	         -1.04559140	          6.09221157	          1.47589118	          0.94290744	         -0.00834784	         30.70329816	         -2.00188029	         -3.93107782	         -9.07216567	          3.03469957	          0.22161787	        -15.05110183	         -2.91821937	         -0.81298238	         -9.80812282	         12.86091147	         26.95216125	        -14.11747636	         -1.51864136	         -4.14147516	          0.04323027	          0.24838879	          0.05998171	          0.01223619	          0.16440893	          0.07380884	          0.14971338	          0.02541964	          0.07663855	          0.03377837	          0.00999999	          0.00999999	          0.00999999	          0.44597031	          0.00999999	          0.00999999	          0.00999999	          0.04205655	          0.00999999	          0.02763914	          0.25805006	          0.02241742	          0.27215801	          0.00999999	          0.00999999	          0.14560667	          0.28725753	          0.01497244	
          1.35513645	         -2.60045819	         -1.08675059	          6.16421738	          1.49429744	          0.94071738	         -0.00722907	         30.46959096	         -1.81749069	         -4.15326192	        -10.05004026	          2.47857693	          0.24579472	        -15.55636625	         -3.13541331	         -1.16453964	        -10.64417984	         12.15709677	         28.83021298	        -13.68281218	         -1.06757143	         -4.42809412	          0.03532982	          0.20299506	          0.04901989	          0.00999999	          0.18764766	          0.06032008	          0.12235285	          0.09572930	          0.06263264	          0.02760528	          0.00999999	          0.01223619	          0.01497244	          0.46439011	          0.03899906	          0.00999999	          0.00999999	          0.03437060	          0.03141501	          0.02258801	          0.21089071	          0.01832058	          0.23000454	          0.00999999	          0.00999999	          0.11899665	          0.26810847	          0.01223619	
          1.36855364	         -2.70384098	         -1.13959216	          6.21157515	          1.51314127	          0.93876986	         -0.00605082	         30.17374603	         -1.66055868	         -4.29880568	        -11.28745441	          1.98578715	          0.21241018	        -15.97088338	         -3.37233216	         -1.53190809	        -11.70700481	         11.30860410	         30.77455991	        -13.21132066	         -0.59555664	         -4.70567062	          0.03591262	          0.16589716	          0.04006137	          0.07517264	          0.20392126	          0.05388977	          0.09999254	          0.11652352	          0.05118636	          0.02256034	          0.00999999	          0.01000000	          0.01223619	          0.52612789	          0.03187188	          0.00999999	          0.00999999	          0.02808928	          0.02567383	          0.01845999	          0.17234985	          0.01497244	          0.23794615	          0.00999999	          0.00999999	          0.09724969	          0.24436637	          0.00999999	
          1.38197084	         -2.78737716	         -1.17934733	          6.22318782	          1.53207848	          0.93732804	         -0.00478580	         29.90612284	         -1.52670769	         -4.49463980	        -12.56102429	          1.28265844	          0.18955817	        -16.17050396	         -3.60176770	         -1.91437569	        -13.16119734	         10.27451872	         32.79598182	        -12.74524538	         -0.13573973	         -4.96405062	          0.03994069	          0.13557900	          0.03274004	          0.11206782	          0.24136547	          0.04936044	          0.08171863	          0.11480000	          0.04183191	          0.01843738	          0.04171840	          0.00999999	          0.00999999	          0.58115606	          0.06422310	          0.00999999	          0.00999999	          0.02295589	          0.02688680	          0.02628288	          0.14085245	          0.01223619	          0.19446084	          0.00999999	          0.00999999	          0.07947704	          0.20738143	          0.00999999	
